<?xml version="1.0" encoding="UTF-8" standalone="no"?>
<svg xmlns="http://www.w3.org/2000/svg" viewBox="0 0 94.7 94.7">
  <path d="M47.35 0a47.35 47.35 0 1 0 47.35 47.35A47.35 47.35 0 0 0 47.35 0zm0 86.6a39.25 39.25 0 1 1 39.25-39.25 39.25 39.25 0 0 1-39.25 39.25z" fill="#ff7800"/>
  <path d="M47.71 41.66l-2.91 7 31.9-1.44-2.58-9.16-26.41 3.6zm-1 16.65l28.74-3.42 2.58-5.39-32.26 1.5.94 7.31zM30.57 17.67a12.43 12.43 0 0 0-3.41 5.77c-.56 2.1-.81 5.41-.29 10.39a71.48 71.48 0 0 0 2.06 11.75 67.72 67.72 0 0 0 4.12 12.18 44.58 44.58 0 0 0 6.28 10.54 18.23 18.23 0 0 0 7.45 6c.07-.16.14-.33.14-.33l1.78-4-2.4-.81-1.81 3.92a14.26 14.26 0 0 1-4.71-4.32 40.87 40.87 0 0 1-5.51-9.53 62.59 62.59 0 0 1-3.8-11.23 65.29 65.29 0 0 1-1.89-10.53c-.46-4.23-.21-6.91.19-8.39a8.71 8.71 0 0 1 2.31-4.44c3.16-3.06 9.38-3.38 12-3.31l3.55.11 1.47-7-7.06-.11c-3.91-.06-8.14.59-10.47 3.24zM47.1 30.29l1.56 7.28 25.23-3.63 1.16-7.3-27.95 3.65zm-22.96-9.6l-2.31 7.11 9.76 1.38 2.58-6.98-10.03-1.51zM31.08 41.7l-.91 7.59 9.63.8 1.22-7.4-9.94-.99zm-6.14-18.58l-2.43 7.16 7.18 1.29 2.55-7.04-7.3-1.41zm4.45 21.09l-.94 7.64 9.26 1.2 1.25-7.45-9.57-1.39zm-7.94-16.55l-2.43 7.14 5.83 1.17 2.54-6.94-5.94-1.37zm3.67 21.58l-.95 7.68 7.41 1.38 1.26-7.49-7.72-1.57zm-7.2-16.12l-2.42 7.12 4.71 1.02 2.53-6.88-4.82-1.26zm2.89 21.57l-.95 7.69 5.83 1.5 1.26-7.53-6.14-1.66zm-6.52-15.72l-2.39 7.1 3.8.87 2.51-6.83-3.92-1.14zm2.05 21.58l-.95 7.71 4.47 1.59 1.26-7.57-4.78-1.73zm-5.85-15.35l-2.37 7.08 3.11.72 2.5-6.8-3.24-1zm1.25 21.59l-.95 7.75 3.13 1.11.21.09.14.07a5.83 5.83 0 0 0 1 .38l1.26-7.61-3.73-1.79z" fill="#ff7800"/>
</svg>