<?xml version="1.0" encoding="UTF-8" standalone="no"?>
<svg xmlns="http://www.w3.org/2000/svg" viewBox="0 0 64 64">
  <path d="M32 0C14.327 0 0 14.327 0 32c0 17.673 14.327 32 32 32s32-14.327 32-32C64 14.327 49.673 0 32 0zm0 4c15.464 0 28 12.536 28 28S47.464 60 32 60 4 47.464 4 32 16.536 4 32 4z" fill="#ed1c24"/>
  <path d="M44.95 19.05C41.15 15.25 36.7 13.29 32 13.29s-9.15 1.96-12.95 5.76C15.25 22.85 13.29 27.3 13.29 32s1.96 9.15 5.76 12.95c3.8 3.8 8.25 5.76 12.95 5.76s9.15-1.96 12.95-5.76c3.8-3.8 5.76-8.25 5.76-12.95s-1.96-9.15-5.76-12.95zM32 48.14c-8.91 0-16.14-7.23-16.14-16.14S23.09 15.86 32 15.86 48.14 23.09 48.14 32 40.91 48.14 32 48.14z" fill="#ed1c24"/>
  <path d="M32 19C24.82 19 19 24.82 19 32s5.82 13 13 13 13-5.82 13-13-5.82-13-13-13zm0 24.05c-6.1 0-11.05-4.95-11.05-11.05S25.9 20.95 32 20.95 43.05 25.9 43.05 32 38.1 43.05 32 43.05z" fill="#ed1c24"/>
  <path d="M32 24.36c-4.22 0-7.64 3.42-7.64 7.64s3.42 7.64 7.64 7.64 7.64-3.42 7.64-7.64-3.42-7.64-7.64-7.64zm0 13.28c-3.12 0-5.64-2.52-5.64-5.64s2.52-5.64 5.64-5.64 5.64 2.52 5.64 5.64-2.52 5.64-5.64 5.64z" fill="#ed1c24"/>
  <circle cx="32" cy="32" r="3" fill="#ed1c24"/>
</svg>