<?xml version="1.0" encoding="UTF-8" standalone="no"?>
<svg xmlns="http://www.w3.org/2000/svg" viewBox="0 0 64 64">
  <path d="M32 0C14.355 0 0 14.355 0 32c0 17.645 14.355 32 32 32s32-14.355 32-32C64 14.355 49.645 0 32 0zm0 4c15.464 0 28 12.536 28 28S47.464 60 32 60 4 47.464 4 32 16.536 4 32 4z" fill="#00a88e"/>
  <path d="M32 8C18.746 8 8 18.746 8 32c0 9.807 5.93 18.233 14.388 21.893a29.173 29.173 0 0 1-1.35-8.598c0-1.563.175-3.08.437-4.58H16.38v-4.862H23c1.24-5.424 3.97-10.373 8.36-13.889l.612-.524.612.524c4.39 3.516 7.12 8.465 8.36 13.889h6.618v4.863h-5.093c.262 1.5.437 3.016.437 4.58 0 2.993-.525 5.905-1.35 8.597C50.07 50.232 56 41.807 56 32c0-13.254-10.746-24-24-24zm0 11.725c-2.642 2.555-4.463 6.038-5.483 9.932h10.966c-1.02-3.894-2.84-7.377-5.483-9.932zm-7.207 14.793c-.35 1.717-.35 3.435-.35 5.152 0 2.817.44 5.547 1.106 8.152 1.98 1.28 4.138 2.048 6.473 2.18 2.335-.132 4.492-.9 6.473-2.18.666-2.605 1.106-5.335 1.106-8.152 0-1.717 0-3.435-.35-5.152h-14.46z" fill="#00a88e"/>
</svg>